<?xml version="1.0" encoding="utf-8"?><svg viewBox="0 0 98 65" xmlns="http://www.w3.org/2000/svg" xmlns:xlink="http://www.w3.org/1999/xlink"><style>:root>svg{display:none}:root>svg:target{display:block}</style><svg fill="none" viewBox="0 0 22 15" id="arrow-left" xmlns="http://www.w3.org/2000/svg"><path d="M.793 6.74a1 1 0 0 0 0 1.413l6.364 6.364a1 1 0 0 0 1.414-1.414L2.914 7.446 8.571 1.79A1 1 0 0 0 7.157.375L.793 6.74ZM21.5 6.445h-20v2h20v-2Z" fill="#222"/></svg><svg fill="none" viewBox="0 0 22 21" id="arrow-right" xmlns="http://www.w3.org/2000/svg"><g clip-path="url(#ba)"><path d="m15.325 5.098-.963.883 4.088 3.75H.68v1.25H18.45l-4.088 3.75.963.884 5.733-5.259-5.733-5.258Z" fill="#fff"/></g><defs><clipPath id="ba"><path fill="#fff" transform="translate(0 .356)" d="M0 0h21.804v20H0z"/></clipPath></defs></svg><svg fill="none" viewBox="0 0 64 65" id="barista" xmlns="http://www.w3.org/2000/svg"><g clip-path="url(#ca)" fill="#fff"><path d="M38.521 54.344h3.328a.945.945 0 1 0 0-1.889h-3.328a.945.945 0 1 0 0 1.89ZM38.521 58.886h3.328a.945.945 0 1 0 0-1.89h-3.328a.945.945 0 1 0 0 1.89ZM26.478 21.97a.945.945 0 0 0-.945.944v.832a.945.945 0 1 0 1.89 0v-.832a.945.945 0 0 0-.945-.945ZM37.44 24.69a.945.945 0 0 0 .945-.944v-.832a.945.945 0 1 0-1.89 0v.832c0 .522.424.945.945.945Z"/><path d="M54.804 45.96a19.587 19.587 0 0 0-7.126-6.597.95.95 0 0 0-.22-.118 22.07 22.07 0 0 0-5.454-1.99l-1.542-2.112c2.796-2.338 4.96-5.498 5.821-8.615.896-.18 1.804-.672 2.538-1.398.895-.884 1.409-1.992 1.409-3.041V20.6a2.356 2.356 0 0 0-2.356-2.351H46.69v-1.985c-.057-3.747-1.27-7.167-3.506-9.892-1.965-2.395-4.72-4.222-7.76-5.147C32.872.45 30.287.333 27.948.89c-2.406.572-4.376 1.825-5.718 3.63-2.365.917-3.964 2.499-4.755 4.706-.67 1.872-.626 3.77-.593 5.157.006.25.012.488.012.693v3.175H15.74a2.356 2.356 0 0 0-2.355 2.35v1.393c0 1.066.516 2.186 1.415 3.074.725.717 1.595 1.191 2.47 1.366.864 3.26 3.148 6.568 6.093 8.948l-1.368 1.873a22.063 22.063 0 0 0-5.45 1.99.94.94 0 0 0-.23.123 19.614 19.614 0 0 0-7.275 6.838.944.944 0 1 0 1.599 1.007c1.406-2.232 3.174-4.047 5.287-5.434v12.038h-5.35c-.962 0-1.745.781-1.745 1.742v.233c0 2.558 1.005 5.062 2.646 6.863-3.538-.011-4.213-1.058-4.213-2.98 0-2.83.463-5.665 1.339-8.197.044-.12.087-.239.127-.355a.944.944 0 1 0-1.786-.615c-.038.108-.078.22-.119.331l-.005.014c-.945 2.73-1.445 5.78-1.445 8.822 0 1.796.599 3.108 1.78 3.901.984.66 2.375.968 4.378.968h40.935c2.003 0 3.394-.307 4.378-.968 1.182-.793 1.78-2.106 1.78-3.901 0-5.048-1.356-9.919-3.82-13.714ZM46.69 23.7v-3.56h1.185a.47.47 0 0 1 .466.46v1.488c0 .54-.316 1.175-.846 1.698-.255.252-.54.461-.833.617.018-.236.028-.47.028-.703Zm-30.563.023c-.534-.527-.853-1.174-.853-1.73V20.6a.47.47 0 0 1 .466-.462h1.154V23.7c0 .202.008.406.02.61a3.496 3.496 0 0 1-.787-.587Zm24.305 14.58c-.327 1.128-1.227 2.172-2.578 2.971-1.598.947-3.68 1.468-5.86 1.468-4.127 0-7.646-1.886-8.422-4.445l1.32-1.806c.979.636 2.01 1.166 3.07 1.56 1.365.507 2.581.76 3.797.76 1.222 0 2.444-.255 3.819-.768a16.08 16.08 0 0 0 3.376-1.763l1.477 2.024ZM23.145 6.195a.945.945 0 0 0 .46-.352c2.134-3.08 6.663-4.21 11.269-2.808C39.595 4.47 44.68 8.706 44.8 16.286v1.964h-3.667c-2.367 0-4.795-1.224-7.366-2.519-2.616-1.318-5.407-2.723-8.242-2.723-2.242 0-4.511.879-6.743 3.376v-1.31c0-.226-.006-.474-.012-.737-.062-2.6-.155-6.529 4.375-8.143Zm-4.18 19.208a8.437 8.437 0 0 1-.184-1.702v-4.22c4.6-6.864 9.023-4.637 14.136-2.061 2.655 1.337 5.4 2.72 8.216 2.72H44.8V23.7c0 .55-.065 1.116-.184 1.69a.947.947 0 0 0-.034.165c-.697 3.098-3.01 6.393-5.961 8.637l-.015.01-.02.016c-1.147.868-2.389 1.577-3.67 2.055-2.327.868-3.975.87-6.298.007-4.629-1.719-8.753-6.506-9.652-10.878Zm-1.15 15.296a20.11 20.11 0 0 1 3.788-1.407v7.575h-3.789v-6.168Zm4.128 21.956H14.416c-2.187-1.304-3.697-4.088-3.697-6.863v-.086h14.924a.735.735 0 0 1 0 .086c0 2.775-1.51 5.56-3.7 6.863Zm24.239 0H24.885c.327-.358.628-.745.901-1.153h2.361c1.97 0 3.033-1.639 3.033-3.18 0-1.554-1.041-3.127-3.032-3.127h-.676a1.798 1.798 0 0 0-.455-.846c-.236-.243-.66-.532-1.347-.532h-7.856v-5.061h12.027a.945.945 0 1 0 0-1.89h-6.349v-5.26c1.9 1.857 4.994 3.026 8.5 3.026 2.515 0 4.938-.615 6.823-1.73.641-.38 1.206-.81 1.69-1.28v5.244h-6.003a.945.945 0 1 0 0 1.89h11.68v13.9Zm-19.4-3.043c.325-.805.551-1.657.665-2.528h.7c1.089 0 1.144 1.031 1.144 1.238 0 .132-.032 1.29-1.143 1.29h-1.365Zm19.4-12.745h-3.789v-7.574c1.376.364 2.636.843 3.789 1.416v6.158Zm6.286 15.788H48.07v-20.86c6.27 4.13 8.666 11.427 8.666 17.88 0 1.933-.68 2.98-4.27 2.98Z"/></g><defs><clipPath id="ca"><path fill="#fff" transform="translate(0 .543)" d="M0 0h64v64H0z"/></clipPath></defs></svg><svg fill="none" viewBox="0 0 69 65" id="coffe" xmlns="http://www.w3.org/2000/svg"><g clip-path="url(#da)" fill="#fff"><path d="M64.108 54.112h-9.677c-.554 0-1.003.42-1.003.938s.449.937 1.003.937h8.675v.53l-14.593 2.591H19.26L4.666 56.517v-.529H50.71c.554 0 1.002-.42 1.002-.937 0-.518-.448-.938-1.002-.938h-6.465a19.316 19.316 0 0 0 3.319-2.483 18.253 18.253 0 0 0 3.548-4.55c1.268.483 2.61.728 4.001.728 5.87 0 10.645-4.467 10.645-9.959 0-5.49-4.775-9.957-10.645-9.957-.636 0-1.266.054-1.886.158v-.537c0-1.2-1.043-2.176-2.326-2.176h-4.74c-.553 0-1.002.42-1.002.938 0 .517.448.937 1.002.937h4.74c.178 0 .322.135.322.301v1.594H16.55v-1.594c0-.166.144-.3.322-.3h25.566c.554 0 1.002-.42 1.002-.938s-.448-.938-1.002-.938H16.871c-1.283 0-2.327.976-2.327 2.176v11.323c0 1.414.177 2.816.522 4.177-1.632-.455-3.575-.097-5.349 1.038-.457.292-.574.876-.261 1.303.312.427.936.537 1.393.244 1.162-.743 2.382-1.035 3.39-.846l-3.65 5.109c-.308.43-.184 1.012.276 1.3.171.107.365.158.556.158.324 0 .641-.146.835-.416l3.651-5.111c.379.526.586 1.214.596 2.016v.006c.014 1.239-.449 2.578-1.302 3.772a7.587 7.587 0 0 1-1.713 1.738c-.452.33-.926.595-1.412.79H8.91a2.292 2.292 0 0 1-.108-.064c-1.669-1.043-1.775-3.739-.24-6.138.283-.444.129-1.02-.346-1.286s-1.09-.121-1.375.324c-.978 1.529-1.455 3.233-1.345 4.798.063.888.312 1.688.72 2.365H3.664c-.553 0-1.002.42-1.002.938v2.242c0 .45.342.837.815.921l14.738 2.618v2.775c0 .518.449.937 1.003.937h29.335c.554 0 1.003-.42 1.003-.937V60.83l14.74-2.618c.472-.084.814-.47.814-.92V55.05c0-.518-.448-.938-1.002-.938ZM53.226 38.835v-4.436a4.35 4.35 0 0 1 1.886-.427c2.285 0 4.144 1.74 4.144 3.877 0 2.137-1.859 3.876-4.144 3.876-.728 0-1.429-.177-2.052-.51.11-.783.166-1.578.166-2.38Zm-.546 4.297a6.484 6.484 0 0 0 2.432.468c3.39 0 6.148-2.58 6.148-5.751 0-3.172-2.758-5.752-6.148-5.752-.647 0-1.281.095-1.886.277v-2.32l.001-.01V29.96a9.222 9.222 0 0 1 1.885-.194c4.764 0 8.64 3.626 8.64 8.083 0 4.457-3.876 8.083-8.64 8.083a9.077 9.077 0 0 1-3.178-.567c.3-.727.549-1.473.746-2.233Zm-36.131-12.15h34.673v7.853c0 4.331-1.803 8.404-5.077 11.468a17.647 17.647 0 0 1-6.432 3.81H28.06a17.689 17.689 0 0 1-.962-.35c.735-1.082 1.015-2.285.774-3.432l-.001-.005-.002-.005c-.319-1.492-1.446-2.72-3.174-3.456-1.618-.691-3.596-.87-5.569-.503-.18.033-.357.071-.534.113a15.375 15.375 0 0 1-2.043-7.64V30.98Zm.319 21.645c.927-1.299 1.487-2.755 1.612-4.166a8.828 8.828 0 0 1 1.037-.26c2.55-.474 5.009.244 5.99 1.61l-6.442 1.197c-.543.1-.896.594-.788 1.102.095.446.514.755.982.755.065 0 .13-.006.197-.018l6.445-1.199c-.129.617-.496 1.235-1.085 1.803l-.004.005a5.953 5.953 0 0 1-.826.656H15.56c.48-.443.919-.94 1.309-1.485ZM47.55 62.668H20.22v-1.684H47.55v1.684ZM36.494 19.287l-.043.026a6.75 6.75 0 0 1 .043-.026ZM36.45 19.313c-.026.016-.023.014 0 0Z"/><path d="M38.664 10.777c1.35-1.2 2.127-2.863 2.127-4.648 0-2.222-1.202-4.256-3.216-5.442-.469-.275-1.088-.144-1.382.295-.295.438-.154 1.017.314 1.292 1.428.84 2.28 2.281 2.28 3.855 0 1.573-.852 3.014-2.28 3.854a.915.915 0 0 0 0 1.587c1.428.84 2.28 2.281 2.28 3.855 0 1.573-.852 3.014-2.28 3.854l-.013.008.013-.008c-.468.276-.609.855-.314 1.293.19.283.516.439.849.439.182 0 .367-.047.533-.145 2.014-1.185 3.216-3.22 3.216-5.441 0-1.785-.777-3.448-2.127-4.648ZM37.03 18.97c.024-.013.027-.015 0 0Zm-.13.078.06-.036-.06.035ZM44.628 9.984c-.468-.276-1.087-.145-1.382.294-.295.438-.154 1.017.315 1.293 1.427.84 2.279 2.28 2.279 3.854 0 1.573-.852 3.014-2.28 3.854-.468.276-.609.855-.314 1.293.19.283.516.439.85.439.182 0 .366-.047.532-.145 2.014-1.185 3.216-3.22 3.216-5.441 0-2.222-1.202-4.256-3.216-5.441ZM29.944 9.984c-.469-.276-1.088-.144-1.382.294-.295.438-.154 1.017.314 1.293 1.428.84 2.28 2.28 2.28 3.854 0 1.573-.852 3.014-2.28 3.854-.468.276-.609.855-.314 1.293.19.284.516.439.849.439.182 0 .367-.047.533-.145 2.014-1.185 3.216-3.22 3.216-5.44 0-2.223-1.202-4.257-3.216-5.442Z"/></g><defs><clipPath id="da"><path fill="#fff" transform="translate(0 .543)" d="M0 0h68.419v64H0z"/></clipPath></defs></svg><svg fill="none" viewBox="0 0 98 27" id="company-years" xmlns="http://www.w3.org/2000/svg"><path d="m4.416 17.72.524-.353 2.823 4.175-.67.452-2.366-3.498-.518.862-.522-.43.73-1.207ZM15.01 17.35a2.86 2.86 0 0 1-.608.233c-.175.046-.33.068-.469.066l-.12-.647c.124-.003.253-.014.387-.033.136-.027.294-.086.475-.177.4-.201.633-.474.7-.818.07-.345-.002-.754-.215-1.226a1.272 1.272 0 0 1-.274.505 1.587 1.587 0 0 1-.497.384c-.21.106-.418.172-.625.199-.205.02-.403 0-.594-.06a1.509 1.509 0 0 1-.534-.313 1.886 1.886 0 0 1-.42-.568 1.9 1.9 0 0 1-.206-.694 1.607 1.607 0 0 1 .07-.662c.073-.21.19-.4.35-.57.156-.174.354-.321.592-.44a1.68 1.68 0 0 1 .654-.178c.229-.02.458.02.687.12.234.097.463.26.685.488.227.226.437.53.628.911.228.453.372.864.433 1.233.063.363.056.688-.02.977-.07.286-.2.537-.39.752-.189.208-.418.38-.69.517Zm-.3-3.495a1.743 1.743 0 0 0-.29-.418 1.244 1.244 0 0 0-.359-.285.974.974 0 0 0-.401-.121.729.729 0 0 0-.408.08c-.257.13-.414.316-.47.559-.052.241-.004.51.145.805.158.314.353.511.584.592.237.078.484.052.74-.077a.97.97 0 0 0 .393-.34.9.9 0 0 0 .15-.434.707.707 0 0 0-.084-.361ZM24.286 7.909l.186.528-.5 5.094-.768-.061.535-4.682-2.234.785-.215-.612 2.996-1.052ZM32.525 5.702l.814-.173.652 3.067.759-.16.138.649-.76.161.259 1.213-.76.161-.257-1.213-2.324.494-.108-.508 1.587-3.691Zm.008 1.618-.757 1.747 1.456-.31-.311-1.462-.121-.8-.016.003-.25.822ZM50.019 6.333l-.005.688-1.76-.012.005-.688 1.76.012ZM65.644 6.327a1.263 1.263 0 0 0-.497-.01 1.925 1.925 0 0 0-.548.182l-.237-.6c.264-.134.514-.213.748-.238.241-.029.482-.017.722.036.26.057.48.146.661.268.182.116.324.254.426.413.101.159.164.334.188.524.028.192.02.393-.026.601-.081.37-.305.72-.672 1.048-.368.329-.848.677-1.442 1.043l-.568.35 2.14.47-.142.65-2.977-.655-.026-.587.82-.524c.336-.216.624-.41.864-.58.246-.176.448-.339.607-.49a2.32 2.32 0 0 0 .382-.432 1.3 1.3 0 0 0 .185-.434c.056-.255.034-.476-.067-.662-.1-.191-.28-.316-.541-.373ZM75.6 8.487c.271.097.502.234.694.41.199.174.344.39.438.651.096.255.135.556.119.901-.015.34-.1.726-.254 1.158-.155.432-.34.782-.556 1.05-.21.27-.44.475-.687.612-.243.14-.494.217-.754.231a2.027 2.027 0 0 1-.764-.121 2.178 2.178 0 0 1-.705-.406 1.721 1.721 0 0 1-.438-.65 2.356 2.356 0 0 1-.118-.901c.016-.346.102-.734.257-1.166.147-.412.326-.753.537-1.023.217-.273.447-.48.69-.62a1.84 1.84 0 0 1 .764-.235c.267-.017.526.02.777.11Zm-1.963 2.058a4.162 4.162 0 0 0-.242.959c-.024.257-.011.474.038.65a.896.896 0 0 0 .244.411c.113.097.24.171.38.222.14.05.286.071.436.063a.888.888 0 0 0 .447-.18c.15-.104.296-.265.436-.48.147-.22.285-.51.415-.872.135-.376.215-.693.24-.951.025-.263.013-.48-.04-.651a.776.776 0 0 0-.235-.408 1.097 1.097 0 0 0-.377-.229 1.02 1.02 0 0 0-.44-.055.878.878 0 0 0-.45.17c-.147.105-.293.268-.44.488a3.93 3.93 0 0 0-.412.863ZM84.596 13.07a1.263 1.263 0 0 0-.478-.136 1.925 1.925 0 0 0-.576.037l-.076-.64c.289-.063.55-.075.783-.04.241.033.47.106.689.218.237.121.428.264.572.427.146.159.249.328.306.507.058.18.075.365.049.555-.02.193-.08.385-.177.575-.173.337-.478.618-.917.843-.438.225-.991.439-1.659.643l-.638.194 1.951.999-.302.59-2.714-1.388.124-.575.925-.299c.38-.123.709-.236.984-.341.282-.107.52-.214.711-.32.197-.102.356-.21.48-.32a1.3 1.3 0 0 0 .289-.373c.119-.233.153-.452.103-.658-.049-.21-.191-.376-.429-.497ZM91.854 16.909c.243.003.471.041.685.115.218.077.423.18.613.308s.345.275.465.44c.123.16.21.328.258.503.052.17.065.343.037.518a1.216 1.216 0 0 1-.199.493c-.176.26-.39.429-.64.504-.25.075-.496.086-.737.033.207.217.33.47.366.759.04.284-.026.552-.196.804a1.35 1.35 0 0 1-1.112.63 1.75 1.75 0 0 1-.633-.12 2.862 2.862 0 0 1-.608-.315 3.548 3.548 0 0 1-.55-.458 2.087 2.087 0 0 1-.385-.502l.493-.4c.111.158.217.297.317.416.104.122.251.248.441.376.11.075.226.133.345.175a.97.97 0 0 0 .364.063.792.792 0 0 0 .34-.089.787.787 0 0 0 .288-.269c.155-.23.19-.453.106-.671-.081-.223-.254-.424-.52-.603l-.49-.331.35-.517.37.25c.253.17.497.252.734.245.244-.009.446-.132.608-.371a.685.685 0 0 0 .106-.585.824.824 0 0 0-.363-.506 1.433 1.433 0 0 0-.418-.196 2.41 2.41 0 0 0-.537-.092l.102-.607Z" fill="#222"/></svg><svg fill="none" viewBox="0 0 11 19" id="facebook" xmlns="http://www.w3.org/2000/svg"><path d="M6.897 18.767V10.57h2.765l.411-3.21H6.897V5.319c0-.926.258-1.56 1.587-1.56h1.684V.897C9.348.809 8.525.767 7.701.77 5.257.77 3.579 2.262 3.579 5v2.356H.832v3.209h2.753v8.202h3.312Z" fill="#222"/></svg><svg fill="none" viewBox="0 0 25 25" id="instagram" xmlns="http://www.w3.org/2000/svg"><path d="M12.5 7.963a4.8 4.8 0 0 0-4.807 4.807 4.8 4.8 0 0 0 4.807 4.807 4.8 4.8 0 0 0 4.807-4.808A4.8 4.8 0 0 0 12.5 7.964Zm0 7.93a3.13 3.13 0 0 1-3.124-3.123A3.13 3.13 0 0 1 12.5 9.645a3.13 3.13 0 0 1 3.124 3.125 3.13 3.13 0 0 1-3.124 3.124Zm5.004-9.248c-.621 0-1.123.502-1.123 1.123s.502 1.123 1.123 1.123a1.12 1.12 0 0 0 1.037-1.553 1.123 1.123 0 0 0-1.037-.693Zm4.366 6.125c0-1.294.012-2.576-.06-3.868-.073-1.5-.415-2.83-1.512-3.928-1.1-1.099-2.428-1.439-3.928-1.511-1.294-.073-2.576-.061-3.868-.061-1.293 0-2.575-.012-3.867.06-1.5.073-2.831.415-3.928 1.512-1.1 1.1-1.439 2.428-1.512 3.928-.072 1.294-.06 2.576-.06 3.868 0 1.29-.012 2.575.06 3.867.073 1.5.415 2.831 1.512 3.928 1.1 1.1 2.428 1.439 3.928 1.512 1.294.072 2.576.06 3.867.06 1.294 0 2.576.012 3.867-.06 1.5-.073 2.832-.415 3.929-1.512 1.099-1.1 1.439-2.428 1.511-3.928.075-1.292.061-2.574.061-3.867Zm-2.062 5.526a2.977 2.977 0 0 1-.708 1.073c-.33.331-.647.537-1.073.708-1.233.49-4.16.38-5.527.38-1.366 0-4.296.11-5.529-.377a2.978 2.978 0 0 1-1.073-.708 2.999 2.999 0 0 1-.708-1.074c-.488-1.235-.378-4.162-.378-5.528 0-1.367-.11-4.297.378-5.53.17-.426.377-.745.708-1.073A3.03 3.03 0 0 1 6.97 5.46c1.233-.487 4.163-.377 5.529-.377 1.366 0 4.296-.11 5.529.377.427.171.745.378 1.073.708.33.33.537.647.708 1.074.488 1.232.378 4.162.378 5.529 0 1.366.11 4.293-.38 5.526Z" fill="#222"/></svg><svg fill="none" viewBox="0 0 55 55" id="instagram-big" xmlns="http://www.w3.org/2000/svg"><path d="M27.5 15.36a12 12 0 1 0 12 12 12.013 12.013 0 0 0-12-12Zm0 18a6 6 0 1 1 0-12 6 6 0 0 1 0 12Zm12-33h-24a15.018 15.018 0 0 0-15 15v24a15.017 15.017 0 0 0 15 15h24a15.018 15.018 0 0 0 15-15v-24a15.017 15.017 0 0 0-15-15Zm9 39a9 9 0 0 1-9 9h-24a9 9 0 0 1-9-9v-24a9 9 0 0 1 9-9h24a9 9 0 0 1 9 9v24Zm-4-25a4 4 0 1 1-8 0 4 4 0 0 1 8 0Z" fill="#222"/></svg><svg fill="none" viewBox="0 0 42 40" id="logo" xmlns="http://www.w3.org/2000/svg"><path d="M34.522 26.97c4.898-1.597 5.495-5.13 5.46-6.154-.12-3.662-4.823-5.633-8.24-6.646-1.37-.54-3.163-.976-5.225-1.257C26.26 9.29 22.706 5.386 25.082.159c-4.851 4.593-3.98 8.358-2.694 11.454.67 1.615 1.115 3.493.985 5.263-.218-1.454-1.113-3.065-2.15-4.32-.45 0-.865 0-1.416.015-.598-2.22-2.628-5.324-.94-9.039-3.907 3.7-3.255 6.738-2.228 9.242.555 1.26.943 2.9.837 4.363-.219-1.457-1.272-3.106-2.348-4.174-4.568.673-7.72 2.109-7.72 3.77 0 4.373 19.36 5.798 25.761 1.874 2.426-1.126 4.656.662 4.71 2.29-.007.508-.168 1-.46 1.406a19.78 19.78 0 0 0-3.195-1.665c-.569 2.82-1.365 5.224-2.544 6.906-2.468 3.512-5.625 5.897-10.673 5.897-5.047 0-8.205-2.385-10.673-5.897-1.182-1.682-1.978-4.087-2.544-6.906C3.243 22.534.347 25.388.347 28.58c0 5.708 9.251 11.068 20.663 11.068 13.437 0 23.923-7.44 19.727-14.155-1.832 1.31-4.25 1.734-6.215 1.476Z" fill="#222"/></svg><svg fill="none" viewBox="0 0 64 65" id="package" xmlns="http://www.w3.org/2000/svg"><g clip-path="url(#ja)" fill="#fff"><path d="M46.667 64.543c-9.558 0-17.334-7.776-17.334-17.333 0-9.557 7.776-17.333 17.334-17.333C56.224 29.877 64 37.653 64 47.21c0 9.557-7.776 17.333-17.333 17.333Zm0-32C38.58 32.543 32 39.125 32 47.21s6.581 14.667 14.667 14.667c8.085 0 14.666-6.582 14.666-14.667s-6.581-14.667-14.666-14.667Z"/><path d="M44 55.21h-6.667A1.334 1.334 0 0 1 36 53.877v-3.334c0-2.573 1.907-4.666 4.25-4.666h.833c.872 0 1.584-.899 1.584-2 0-1.102-.712-2-1.584-2h-3.75a1.334 1.334 0 0 1 0-2.667h3.75c2.344 0 4.25 2.093 4.25 4.667 0 2.573-1.906 4.666-4.25 4.666h-.832c-.872 0-1.584.899-1.584 2v2H44a1.334 1.334 0 0 1 0 2.667ZM56 55.21a1.334 1.334 0 0 1-1.333-1.333V40.543a1.334 1.334 0 0 1 2.666 0v13.334c0 .736-.597 1.333-1.333 1.333Z"/><path d="M56 48.543h-3.75c-2.343 0-4.25-2.093-4.25-4.666v-3.334a1.334 1.334 0 0 1 2.667 0v3.334c0 1.101.712 2 1.584 2H56a1.334 1.334 0 0 1 0 2.666ZM25.333 53.877H3.536A3.54 3.54 0 0 1 0 50.34V17.877c0-.736.597-1.334 1.333-1.334H52c.736 0 1.333.598 1.333 1.334v8a1.334 1.334 0 0 1-2.666 0V19.21h-48v31.13c0 .48.389.87.869.87h21.797a1.334 1.334 0 0 1 0 2.667Z"/><path d="M52 19.21c-.47 0-.925-.25-1.168-.69L42.78 3.9a1.327 1.327 0 0 0-1.168-.69H11.723c-.488 0-.936.264-1.168.69L2.5 18.52a1.334 1.334 0 0 1-1.81.525 1.33 1.33 0 0 1-.523-1.811L8.221 2.615A3.99 3.99 0 0 1 11.723.543h29.89c1.46 0 2.803.795 3.504 2.07l8.051 14.618a1.33 1.33 0 0 1-.523 1.811 1.317 1.317 0 0 1-.645.168Z"/><path d="M26.667 19.21a1.334 1.334 0 0 1-1.334-1.333v-16a1.334 1.334 0 0 1 2.667 0v16c0 .736-.597 1.333-1.333 1.333Z"/></g><defs><clipPath id="ja"><path fill="#fff" transform="translate(0 .543)" d="M0 0h64v64H0z"/></clipPath></defs></svg><svg fill="none" viewBox="0 0 64 65" id="sales" xmlns="http://www.w3.org/2000/svg"><path d="M43 12.543h-4v-3a7 7 0 0 0-14 0v3h-4a1 1 0 0 0-1 1v22a3.01 3.01 0 0 0 3 3h13v-2H23a1 1 0 0 1-1-1v-1h14v-2H22v-18h3v3h2v-3h10v3h2v-3h3v3h2v-4a1 1 0 0 0-1-1Zm-6 0H27v-3a5 5 0 0 1 10 0v3Z" fill="#fff"/><path d="M57 19.543H39a1 1 0 0 0-1 1v15a3.01 3.01 0 0 0 3 3h14a3.01 3.01 0 0 0 3-3v-15a1 1 0 0 0-1-1Zm-1 16a1 1 0 0 1-1 1H41a1 1 0 0 1-1-1v-1h16v1Zm0-3H40v-11h16v11Z" fill="#fff"/><path d="M48 30.543a5.006 5.006 0 0 0 5-5v-2h-2v2a3 3 0 0 1-6 0v-2h-2v2a5.006 5.006 0 0 0 5 5ZM62.332 45.093a4.109 4.109 0 0 0-5.176-2.062l-8.93 3.25a4 4 0 0 0-3.174-2.959l-12.063-2.127a15.018 15.018 0 0 0-7.735.677l-1.554.571a16.916 16.916 0 0 0-4.1 2.18l-.221-.608a1.003 1.003 0 0 0-1.281-.6l-11.277 4.1a1.001 1.001 0 0 0-.6 1.281l-4.7 1.71.684 1.88 4.7-1.71 4.079 11.207 1.879-.684-4.416-12.146 9.4-3.42 5.131 14.1-2.4.875.684 1.878 3.338-1.22a1 1 0 0 0 .6-1.282l-.342-.94 2.3-.838a10.942 10.942 0 0 1 4.523-.638l4.744.33c1.815.13 3.637-.127 5.345-.754l18.28-6.653a4 4 0 0 0 2.281-5.4l.001.002Zm-1.838 2.483a1.984 1.984 0 0 1-1.127 1.035l-18.28 6.654c-1.446.53-2.987.747-4.523.637l-4.744-.329a12.958 12.958 0 0 0-5.344.753l-2.306.84-3.855-10.593a14.92 14.92 0 0 1 4.07-2.256l1.552-.565a13.015 13.015 0 0 1 6.705-.587L44.7 45.292a2 2 0 1 1-.694 3.94l-10.833-1.91-.348 1.97 10.833 1.91a3.982 3.982 0 0 0 4.506-2.77l9.672-3.522a2.13 2.13 0 0 1 2.667 1 2.01 2.01 0 0 1-.009 1.666Z" fill="#fff"/></svg><svg fill="none" viewBox="0 0 28 27" id="shop" xmlns="http://www.w3.org/2000/svg"><path d="M10.143 25.825a1.143 1.143 0 1 0 0-2.286 1.143 1.143 0 0 0 0 2.286ZM22.714 25.825a1.143 1.143 0 1 0 0-2.286 1.143 1.143 0 0 0 0 2.286ZM1 1.825h4.571l3.063 15.303a2.286 2.286 0 0 0 2.286 1.84h11.109a2.287 2.287 0 0 0 2.285-1.84l1.829-9.589H6.714" stroke="#222" stroke-width="2" stroke-linecap="round" stroke-linejoin="round"/></svg><svg fill="none" viewBox="0 0 28 27" id="shop-white" xmlns="http://www.w3.org/2000/svg"><path d="M10.643 25.302a1.143 1.143 0 1 0 0-2.286 1.143 1.143 0 0 0 0 2.286ZM23.214 25.302a1.143 1.143 0 1 0 0-2.286 1.143 1.143 0 0 0 0 2.286ZM1.5 1.302h4.571l3.063 15.303a2.286 2.286 0 0 0 2.286 1.84h11.109a2.286 2.286 0 0 0 2.285-1.84l1.829-9.589H7.214" stroke="#fff" stroke-width="2" stroke-linecap="round" stroke-linejoin="round"/></svg><svg fill="none" viewBox="0 0 24 23" id="star-black" xmlns="http://www.w3.org/2000/svg"><path d="m12 .446 2.694 8.292h8.719l-7.054 5.125 2.694 8.291L12 17.03l-7.053 5.124 2.694-8.291L.587 8.738h8.719L12 .446Z" fill="#222"/></svg><svg fill="none" viewBox="0 0 24 23" id="star-gray" xmlns="http://www.w3.org/2000/svg"><path d="m12 .446 2.694 8.292h8.719l-7.054 5.125 2.694 8.291L12 17.03l-7.053 5.124 2.694-8.291L.587 8.738h8.719L12 .446Z" fill="#C4C4C4"/></svg><svg fill="none" viewBox="0 0 25 25" id="twitter" xmlns="http://www.w3.org/2000/svg"><path d="M22.25 6.73a8.015 8.015 0 0 1-2.302.618 3.987 3.987 0 0 0 1.758-2.203 7.89 7.89 0 0 1-2.536.966 3.986 3.986 0 0 0-2.92-1.263 3.996 3.996 0 0 0-3.996 3.998c0 .31.037.619.098.917a11.358 11.358 0 0 1-8.24-4.184 3.968 3.968 0 0 0-.544 2.018 4 4 0 0 0 1.781 3.33 4.033 4.033 0 0 1-1.807-.508v.049a3.997 3.997 0 0 0 3.204 3.923c-.344.09-.697.135-1.052.136a5.31 5.31 0 0 1-.755-.06 4.004 4.004 0 0 0 3.736 2.772 8.01 8.01 0 0 1-4.962 1.709c-.335 0-.644-.012-.965-.05a11.317 11.317 0 0 0 6.138 1.793c7.35 0 11.372-6.089 11.372-11.374 0-.173 0-.347-.012-.52A8.607 8.607 0 0 0 22.25 6.73Z" fill="#222"/></svg></svg>